<svg width="137" height="61" viewBox="0 0 137 61" fill="none" xmlns="http://www.w3.org/2000/svg">
<rect width="136.643" height="60.6148" rx="8.00464" fill="#28303D"/>
<path d="M40.8235 36.2042V40.9218C40.8235 41.6222 40.282 42.2033 39.5834 42.2527C38.9999 42.2939 38.5239 42.3145 38.1553 42.3145C26.3663 42.3145 16.8096 32.7577 16.8096 20.9688C16.8096 20.6002 16.8302 20.1241 16.8714 19.5406C16.9208 18.842 17.5019 18.3005 18.2022 18.3005H22.9199C23.2624 18.3005 23.5492 18.5599 23.5835 18.9006C23.6144 19.2065 23.6431 19.4521 23.6696 19.6373C23.9395 21.522 24.4907 23.3159 25.2794 24.9751C25.406 25.2414 25.3235 25.5602 25.0835 25.7316L22.2041 27.7884C23.9571 31.8832 27.2408 35.167 31.3356 36.92L33.3886 34.0455C33.5622 33.8027 33.8848 33.7192 34.1543 33.8471C35.8134 34.6352 37.6071 35.1858 39.4915 35.455C39.6756 35.4814 39.9196 35.5098 40.2234 35.5405C40.5641 35.575 40.8235 35.8618 40.8235 36.2042Z" fill="#F4F4F5"/>
<path d="M69.8548 42.2399C68.5101 42.2399 67.3094 41.9373 66.2527 41.3321C65.2057 40.7174 64.3749 39.8865 63.7601 38.8395C63.1549 37.7829 62.8524 36.5822 62.8524 35.2374V27.6298C62.8524 26.285 63.1549 25.0843 63.7601 24.0277C64.3749 22.9711 65.2057 22.1402 66.2527 21.5351C67.3094 20.9299 68.5101 20.6273 69.8548 20.6273C71.1996 20.6273 72.4003 20.9299 73.4569 21.5351C74.5135 22.1402 75.3444 22.9711 75.9496 24.0277C76.5547 25.0843 76.8573 26.285 76.8573 27.6298V35.2374C76.8573 36.5822 76.5547 37.7829 75.9496 38.8395C75.3444 39.8865 74.5135 40.7174 73.4569 41.3321C72.4003 41.9373 71.1996 42.2399 69.8548 42.2399ZM69.8548 39.776C70.6713 39.776 71.4109 39.5791 72.0737 39.1853C72.7365 38.7915 73.2648 38.2632 73.6586 37.6004C74.0525 36.928 74.2494 36.1884 74.2494 35.3815V27.4713C74.2494 26.6548 74.0525 25.9152 73.6586 25.2524C73.2648 24.5896 72.7365 24.0613 72.0737 23.6675C71.4109 23.2737 70.6713 23.0768 69.8548 23.0768C69.048 23.0768 68.3083 23.2737 67.6359 23.6675C66.9732 24.0613 66.4449 24.5896 66.051 25.2524C65.6572 25.9152 65.4603 26.6548 65.4603 27.4713V35.3815C65.4603 36.1884 65.6572 36.928 66.051 37.6004C66.4449 38.2632 66.9732 38.7915 67.6359 39.1853C68.3083 39.5791 69.048 39.776 69.8548 39.776ZM84.5075 41.8076V23.898L80.6028 26.261V23.3937L84.5075 21.0596H87.1154V41.8076H84.5075ZM99.6002 42.2399C98.2554 42.2399 97.0547 41.9373 95.9981 41.3321C94.9511 40.7174 94.1202 39.8865 93.5055 38.8395C92.9003 37.7829 92.5977 36.5822 92.5977 35.2374V27.6298C92.5977 26.285 92.9003 25.0843 93.5055 24.0277C94.1202 22.9711 94.9511 22.1402 95.9981 21.5351C97.0547 20.9299 98.2554 20.6273 99.6002 20.6273C100.945 20.6273 102.146 20.9299 103.202 21.5351C104.259 22.1402 105.09 22.9711 105.695 24.0277C106.3 25.0843 106.603 26.285 106.603 27.6298V35.2374C106.603 36.5822 106.3 37.7829 105.695 38.8395C105.09 39.8865 104.259 40.7174 103.202 41.3321C102.146 41.9373 100.945 42.2399 99.6002 42.2399ZM99.6002 39.776C100.417 39.776 101.156 39.5791 101.819 39.1853C102.482 38.7915 103.01 38.2632 103.404 37.6004C103.798 36.928 103.995 36.1884 103.995 35.3815V27.4713C103.995 26.6548 103.798 25.9152 103.404 25.2524C103.01 24.5896 102.482 24.0613 101.819 23.6675C101.156 23.2737 100.417 23.0768 99.6002 23.0768C98.7933 23.0768 98.0537 23.2737 97.3813 23.6675C96.7185 24.0613 96.1902 24.5896 95.7964 25.2524C95.4026 25.9152 95.2057 26.6548 95.2057 27.4713V35.3815C95.2057 36.1884 95.4026 36.928 95.7964 37.6004C96.1902 38.2632 96.7185 38.7915 97.3813 39.1853C98.0537 39.5791 98.7933 39.776 99.6002 39.776ZM111.731 41.8076L119.195 23.5234H109.772V21.0596H121.947V23.5234L114.498 41.8076H111.731Z" fill="white"/>
</svg>
