<svg width="30" height="30" viewBox="0 0 30 30" fill="none" xmlns="http://www.w3.org/2000/svg">
<circle cx="15" cy="15" r="14.5" stroke="#D3D4D6"/>
<path opacity="0.2" d="M14.7684 22.261C14.1264 22.261 13.5354 22.147 12.9954 21.919C12.4554 21.691 11.9904 21.367 11.6004 20.947C11.2104 20.521 10.9254 20.014 10.7454 19.426L12.0054 19.048C12.2214 19.69 12.5754 20.176 13.0674 20.506C13.5654 20.836 14.1264 20.995 14.7504 20.983C15.3264 20.971 15.8214 20.842 16.2354 20.596C16.6554 20.35 16.9764 20.008 17.1984 19.57C17.4204 19.132 17.5314 18.625 17.5314 18.049C17.5314 17.167 17.2734 16.459 16.7574 15.925C16.2474 15.385 15.5724 15.115 14.7324 15.115C14.4984 15.115 14.2524 15.148 13.9944 15.214C13.7364 15.274 13.4964 15.361 13.2744 15.475L12.6084 14.422L17.6484 9.769L17.8644 10.309H11.2584V9.04H18.7464V10.327L14.3544 14.521L14.3364 13.999C15.2364 13.885 16.0284 13.987 16.7124 14.305C17.3964 14.623 17.9304 15.109 18.3144 15.763C18.7044 16.411 18.8994 17.173 18.8994 18.049C18.8994 18.877 18.7194 19.609 18.3594 20.245C18.0054 20.875 17.5164 21.37 16.8924 21.73C16.2684 22.084 15.5604 22.261 14.7684 22.261Z" fill="#212731"/>
</svg>
