<svg width="30" height="30" viewBox="0 0 30 30" fill="none" xmlns="http://www.w3.org/2000/svg">
<circle cx="15" cy="15" r="14.5" stroke="#D3D4D6"/>
<path opacity="0.2" d="M11.2672 21.991L11.2762 20.785L17.1352 15.493C17.6392 15.037 17.9722 14.605 18.1342 14.197C18.3022 13.783 18.3862 13.351 18.3862 12.901C18.3862 12.367 18.2602 11.884 18.0082 11.452C17.7562 11.02 17.4172 10.678 16.9912 10.426C16.5652 10.168 16.0882 10.039 15.5602 10.039C15.0082 10.039 14.5162 10.171 14.0842 10.435C13.6522 10.699 13.3102 11.047 13.0582 11.479C12.8122 11.911 12.6922 12.382 12.6982 12.892H11.3482C11.3482 12.106 11.5342 11.401 11.9062 10.777C12.2782 10.153 12.7822 9.664 13.4182 9.31C14.0542 8.95 14.7742 8.77 15.5782 8.77C16.3642 8.77 17.0692 8.956 17.6932 9.328C18.3232 9.694 18.8182 10.192 19.1782 10.822C19.5442 11.446 19.7272 12.142 19.7272 12.91C19.7272 13.45 19.6612 13.927 19.5292 14.341C19.4032 14.749 19.2022 15.13 18.9262 15.484C18.6562 15.832 18.3112 16.192 17.8912 16.564L12.6892 21.262L12.4822 20.722H19.7272V21.991H11.2672Z" fill="#212731"/>
</svg>
