<svg width="1278" height="220" viewBox="0 0 1278 220" fill="none" xmlns="http://www.w3.org/2000/svg">
<path fill-rule="evenodd" clip-rule="evenodd" d="M0 4.33488L42.6 36.1964C85.2 68.0579 170.4 131.781 255.6 138.419C340.8 144.393 426 93.9454 511.2 106.557C596.4 119.169 681.6 195.504 766.8 214.754C852 234.003 937.2 195.504 1022.4 176.254C1107.6 157.668 1192.8 157.668 1235.4 157.668H1278V-72H1235.4C1192.8 -72 1107.6 -72 1022.4 -72C937.2 -72 852 -72 766.8 -72C681.6 -72 596.4 -72 511.2 -72C426 -72 340.8 -72 255.6 -72C170.4 -72 85.2 -72 42.6 -72H0V4.33488Z" fill="#28303D"/>
</svg>
